Coordinates
version=1
nRows=36
nColumns=38
inDegrees=no

Units are S.I. units (second, meters, Newtons, ...)
If the header above contains a line with 'inDegrees', this indicates whether rotational values are in degrees (yes) or radians (no).

endheader
time	pelvis_tilt	pelvis_list	pelvis_rotation	pelvis_tx	pelvis_ty	pelvis_tz	hip_flexion_r	hip_adduction_r	hip_rotation_r	knee_angle_r	ankle_angle_r	subtalar_angle_r	mtp_angle_r	hip_flexion_l	hip_adduction_l	hip_rotation_l	knee_angle_l	ankle_angle_l	subtalar_angle_l	mtp_angle_l	lumbar_extension	lumbar_bending	lumbar_rotation	arm_flex_r	arm_add_r	arm_rot_r	elbow_flex_r	pro_sup_r	wrist_flex_r	wrist_dev_r	arm_flex_l	arm_add_l	arm_rot_l	elbow_flex_l	pro_sup_l	wrist_flex_l	wrist_dev_l
0	-2.01028	1.55115	-2.77376	0.663854	0.551479	0.980521	-0.0415254	-0.0593562	-0.296334	0.18764	0.112134	0	0	-0.0808977	-0.0113831	-0.25291	0.0916939	0.0966273	0	0	0.021747	-0.0259207	-0.00684183	-0.175327	-0.123686	-0.0104138	0.48225	1.42236	0	0	-0.20442	-0.218518	0.420055	0.621214	0.790881	0	0
0.01	-2.00634	1.55137	-2.77815	0.66394	0.551554	0.980501	-0.0414707	-0.0591234	-0.296144	0.187593	0.112212	0	0	-0.0808463	-0.0116163	-0.253175	0.0918499	0.0967586	0	0	0.0221202	-0.02596	-0.00632596	-0.175436	-0.123474	-0.0109147	0.482278	1.42269	0	0	-0.204703	-0.217816	0.418514	0.62336	0.791247	0	0
0.02	-1.99144	1.55171	-2.79378	0.664021	0.551655	0.980451	-0.0409226	-0.0589321	-0.295595	0.187837	0.11227	0	0	-0.0804007	-0.0118825	-0.254455	0.0922463	0.0973595	0	0	0.0230092	-0.0258676	-0.00580324	-0.175562	-0.12362	-0.010223	0.482247	1.42285	0	0	-0.205449	-0.217029	0.417362	0.624671	0.793959	0	0
0.03	-1.96438	1.55208	-2.82201	0.664111	0.551796	0.980383	-0.0400986	-0.0588465	-0.294642	0.188145	0.112388	0	0	-0.0798673	-0.0119961	-0.256554	0.0923906	0.0980195	0	0	0.0242686	-0.0257071	-0.00477604	-0.175939	-0.12391	-0.00949526	0.482292	1.4229	0	0	-0.206286	-0.216097	0.416472	0.625582	0.798104	0	0
0.04	-1.94707	1.55224	-2.84005	0.664186	0.551894	0.98035	-0.0397884	-0.0587397	-0.293803	0.187922	0.112318	0	0	-0.0795648	-0.0120569	-0.257499	0.0926508	0.0982719	0	0	0.0250345	-0.0257786	-0.00409359	-0.176061	-0.123982	-0.00929105	0.482136	1.42339	0	0	-0.206816	-0.215233	0.415079	0.627594	0.801656	0	0
0.05	-1.93832	1.55242	-2.84932	0.664285	0.551944	0.980345	-0.0396081	-0.0585204	-0.293208	0.187653	0.112103	0	0	-0.0793714	-0.0123019	-0.257434	0.0931215	0.0982508	0	0	0.0254401	-0.0258942	-0.00362176	-0.175914	-0.12386	-0.00935495	0.481715	1.42391	0	0	-0.207081	-0.214437	0.41339	0.629956	0.805067	0	0
0.06	-1.92437	1.55272	-2.864	0.664401	0.551978	0.980325	-0.03887	-0.0583749	-0.293075	0.188309	0.112309	0	0	-0.0789535	-0.0126573	-0.257784	0.0936878	0.0984567	0	0	0.0259711	-0.025889	-0.00300049	-0.175704	-0.123744	-0.00946358	0.481219	1.42434	0	0	-0.207217	-0.213649	0.412036	0.631945	0.809127	0	0
0.07	-1.91831	1.55296	-2.87052	0.664473	0.552047	0.980315	-0.0385469	-0.0581984	-0.293054	0.188787	0.112622	0	0	-0.0788106	-0.0129138	-0.258123	0.0939007	0.0986244	0	0	0.0263997	-0.0258281	-0.00264253	-0.175623	-0.123805	-0.00930181	0.480946	1.42455	0	0	-0.207139	-0.212858	0.411946	0.632631	0.812437	0	0
0.08	-1.92424	1.55322	-2.86491	0.664543	0.552131	0.980311	-0.0387481	-0.0578217	-0.292847	0.188664	0.112638	0	0	-0.0789232	-0.0132389	-0.258705	0.0939009	0.0989256	0	0	0.0265939	-0.0256998	-0.00234742	-0.175689	-0.123933	-0.00892322	0.480933	1.42455	0	0	-0.20693	-0.212136	0.412066	0.633172	0.815164	0	0
0.09	-1.9255	1.55348	-2.864	0.66462	0.552209	0.980293	-0.0390257	-0.0573718	-0.292173	0.188062	0.112364	0	0	-0.0788836	-0.0135191	-0.259597	0.0939407	0.099424	0	0	0.0268675	-0.0256281	-0.00201167	-0.175779	-0.124035	-0.00853711	0.480964	1.42391	0	0	-0.206714	-0.211413	0.411523	0.634457	0.817521	0	0
0.1	-1.91806	1.55366	-2.87183	0.664693	0.552261	0.980277	-0.0388965	-0.0570968	-0.2914	0.187809	0.112113	0	0	-0.0787039	-0.0137086	-0.259854	0.0941837	0.0996202	0	0	0.0272491	-0.0256635	-0.00156865	-0.175841	-0.124104	-0.00822047	0.480939	1.42297	0	0	-0.20635	-0.210796	0.411417	0.635712	0.819426	0	0
0.11	-1.91491	1.55382	-2.8753	0.664756	0.552305	0.980279	-0.038769	-0.0568577	-0.29075	0.187816	0.11206	0	0	-0.0786203	-0.0139432	-0.25955	0.0945217	0.0995869	0	0	0.0275568	-0.0256989	-0.0011579	-0.175956	-0.124231	-0.00773306	0.481044	1.42199	0	0	-0.205901	-0.210409	0.412233	0.63665	0.82115	0	0
0.12	-1.91545	1.55397	-2.875	0.664799	0.552359	0.980278	-0.0388545	-0.0565692	-0.290213	0.187588	0.111975	0	0	-0.0785487	-0.0141565	-0.259707	0.0947724	0.0997744	0	0	0.0278481	-0.0257291	-0.000715968	-0.176193	-0.124445	-0.00713318	0.481275	1.42127	0	0	-0.205459	-0.210074	0.412959	0.637961	0.822651	0	0
0.13	-1.90708	1.55416	-2.88354	0.66484	0.552407	0.980268	-0.0387243	-0.05632	-0.289848	0.187457	0.111949	0	0	-0.07826	-0.0144133	-0.259606	0.0952446	0.099905	0	0	0.0282413	-0.0257309	-0.000367621	-0.176345	-0.124535	-0.00721201	0.481419	1.42104	0	0	-0.205055	-0.209705	0.413406	0.639007	0.824365	0	0
0.14	-1.89002	1.55441	-2.90086	0.664902	0.552442	0.980251	-0.0382332	-0.0561238	-0.289505	0.187631	0.111933	0	0	-0.0777453	-0.0146974	-0.259916	0.0957456	0.100247	0	0	0.0287034	-0.0256308	8.74176e-05	-0.176595	-0.124754	-0.00722645	0.481897	1.42062	0	0	-0.204717	-0.209444	0.414187	0.63973	0.826387	0	0
0.15	-1.87671	1.55457	-2.9145	0.664962	0.552479	0.980251	-0.0378715	-0.0560031	-0.289166	0.187749	0.111876	0	0	-0.0773906	-0.0148589	-0.260382	0.0960379	0.100548	0	0	0.0291064	-0.0255949	0.00048062	-0.176725	-0.124928	-0.00724148	0.482196	1.42067	0	0	-0.204528	-0.209177	0.41463	0.640622	0.828625	0	0
0.16	-1.87306	1.55465	-2.91835	0.665012	0.552523	0.980259	-0.0379967	-0.0558144	-0.288902	0.187413	0.111735	0	0	-0.0773372	-0.0149835	-0.260438	0.0962049	0.100495	0	0	0.0293354	-0.0256588	0.000645396	-0.176646	-0.124953	-0.00736999	0.482145	1.42089	0	0	-0.204438	-0.208939	0.414514	0.642138	0.830668	0	0
0.17	-1.86608	1.5548	-2.92551	0.665042	0.552561	0.980247	-0.0380311	-0.055591	-0.288705	0.187142	0.111649	0	0	-0.0772257	-0.0151493	-0.26051	0.0963018	0.100504	0	0	0.0295873	-0.0256406	0.000755881	-0.176573	-0.125136	-0.00719178	0.482268	1.42075	0	0	-0.204281	-0.208657	0.414386	0.643264	0.832913	0	0
0.18	-1.848	1.55498	-2.9439	0.665067	0.552591	0.980219	-0.0377076	-0.0554222	-0.288307	0.186997	0.111441	0	0	-0.0769018	-0.0152929	-0.260859	0.0964113	0.10058	0	0	0.0300666	-0.0255916	0.000947068	-0.176579	-0.125454	-0.00664273	0.482523	1.42037	0	0	-0.20416	-0.208315	0.414216	0.643972	0.835477	0	0
0.19	-1.82863	1.55511	-2.96359	0.66509	0.552617	0.980199	-0.0374327	-0.0553006	-0.287727	0.186643	0.111151	0	0	-0.0766007	-0.015343	-0.261129	0.096442	0.100636	0	0	0.0305854	-0.02559	0.00106254	-0.176476	-0.125743	-0.00623343	0.482609	1.42006	0	0	-0.204083	-0.207905	0.413964	0.644459	0.837161	0	0
0.2	-1.81328	1.55525	-2.97922	0.665124	0.552638	0.98019	-0.0372692	-0.0551184	-0.28729	0.186214	0.110889	0	0	-0.0763311	-0.015459	-0.26139	0.0965054	0.100738	0	0	0.0309646	-0.025558	0.00119058	-0.176362	-0.125961	-0.0060685	0.482721	1.41987	0	0	-0.204014	-0.207653	0.413889	0.645043	0.838433	0	0
0.21	-1.79741	1.55545	-2.99531	0.665153	0.552649	0.980185	-0.036978	-0.0549292	-0.287266	0.186195	0.110927	0	0	-0.0759671	-0.015643	-0.261896	0.0966121	0.100925	0	0	0.0313008	-0.025461	0.00133059	-0.176238	-0.126254	-0.00566991	0.482863	1.41964	0	0	-0.203847	-0.207451	0.414015	0.645384	0.840034	0	0
0.22	-1.78784	1.55565	-3.00504	0.66517	0.55265	0.980175	-0.0368878	-0.0546788	-0.287158	0.18595	0.110822	0	0	-0.075647	-0.0158463	-0.262576	0.09675	0.101201	0	0	0.0314649	-0.0253402	0.00144051	-0.176126	-0.126623	-0.00496751	0.483092	1.41908	0	0	-0.203652	-0.207351	0.414274	0.645744	0.841123	0	0
0.23	-1.78057	1.55576	-3.01246	0.665197	0.552649	0.98017	-0.036902	-0.0544936	-0.28692	0.185559	0.110614	0	0	-0.0754942	-0.0160244	-0.262446	0.0969533	0.101135	0	0	0.0315293	-0.0253347	0.00158609	-0.176014	-0.126865	-0.0044606	0.48322	1.41849	0	0	-0.203405	-0.207341	0.414704	0.645931	0.841503	0	0
0.24	-1.7732	1.55588	-3.01999	0.665219	0.552651	0.980171	-0.0370115	-0.05427	-0.286634	0.185033	0.110416	0	0	-0.0753347	-0.0162057	-0.262407	0.0971313	0.101106	0	0	0.0315456	-0.0253009	0.00176718	-0.175927	-0.127063	-0.0041024	0.483344	1.41785	0	0	-0.203181	-0.207395	0.415358	0.645883	0.841606	0	0
0.25	-1.76864	1.55598	-3.02473	0.665233	0.552642	0.980178	-0.0371689	-0.0540764	-0.286403	0.184487	0.110234	0	0	-0.0751752	-0.0162997	-0.262618	0.0972674	0.101123	0	0	0.0314855	-0.0252493	0.00193748	-0.175774	-0.127393	-0.00343327	0.483539	1.41681	0	0	-0.202962	-0.207419	0.41613	0.645456	0.841536	0	0
0.26	-1.78197	1.55598	-3.01159	0.665242	0.552641	0.980205	-0.0374771	-0.0540112	-0.286074	0.184119	0.109941	0	0	-0.0755417	-0.0162362	-0.262655	0.0969052	0.100903	0	0	0.0311251	-0.0252693	0.00211155	-0.175616	-0.127766	-0.00257866	0.483869	1.41584	0	0	-0.202852	-0.207496	0.416462	0.645466	0.841575	0	0
0.27	-1.86358	1.55588	-2.92999	0.66525	0.552663	0.980299	-0.0393816	-0.0536737	-0.285665	0.182807	0.109183	0	0	-0.0775448	-0.0161359	-0.261744	0.0953789	0.0999589	0	0	0.0295232	-0.0252417	0.00204912	-0.175432	-0.128227	-0.0013124	0.484701	1.41489	0	0	-0.202643	-0.207656	0.416357	0.645842	0.841721	0	0
0.28	-2.19504	1.55293	-2.59351	0.663914	0.553327	0.981032	-0.04932	-0.0537856	-0.28076	0.178663	0.106329	0	0	-0.086235	-0.0134098	-0.256133	0.0909151	0.0972003	0	0	0.0233755	-0.0244613	-0.00250927	-0.176425	-0.13101	-0.000553186	0.486575	1.41385	0	0	-0.201616	-0.204885	0.416891	0.643516	0.841858	0	0
0.29	-2.19321	1.553	-2.59544	0.663912	0.553307	0.981027	-0.0492235	-0.0537443	-0.2806	0.17862	0.106238	0	0	-0.0861103	-0.0134704	-0.256263	0.0909736	0.0972187	0	0	0.0232754	-0.0245086	-0.00244877	-0.176277	-0.131392	0.00105455	0.486829	1.41123	0	0	-0.201748	-0.205087	0.416655	0.643947	0.842005	0	0
0.3	-1.73057	1.55621	-3.06345	0.665267	0.552585	0.980141	-0.0364305	-0.0538902	-0.285639	0.184163	0.109874	0	0	-0.0742694	-0.0165309	-0.263587	0.0976615	0.101394	0	0	0.0315163	-0.0255155	0.00222651	-0.175413	-0.129987	0.00765522	0.485598	1.39849	0	0	-0.203649	-0.20823	0.415215	0.64731	0.842408	0	0
0.31	-2.18527	1.5532	-2.60346	0.663898	0.553245	0.981042	-0.0491723	-0.053552	-0.280278	0.178082	0.105986	0	0	-0.0857387	-0.0135582	-0.256293	0.0910564	0.0971495	0	0	0.0229881	-0.024553	-0.00224567	-0.175414	-0.131005	-0.00233638	0.485894	1.41883	0	0	-0.201722	-0.205575	0.416955	0.644322	0.841002	0	0
0.32	-2.18088	1.5533	-2.60785	0.66389	0.553214	0.981046	-0.0490483	-0.0534754	-0.280172	0.177941	0.105815	0	0	-0.0855564	-0.0136217	-0.256288	0.0910502	0.0970602	0	0	0.0228576	-0.0245628	-0.00221232	-0.175192	-0.13106	-0.00248202	0.485967	1.41886	0	0	-0.201719	-0.205737	0.416903	0.644274	0.840915	0	0
0.33	-2.17925	1.55342	-2.60953	0.663885	0.553189	0.981039	-0.0488706	-0.0534402	-0.280356	0.178029	0.105767	0	0	-0.085417	-0.013726	-0.256481	0.0910709	0.0970464	0	0	0.0227492	-0.0245448	-0.0022309	-0.175173	-0.131606	0.000122756	0.486596	1.41384	0	0	-0.201908	-0.205914	0.416559	0.644438	0.841338	0	0
0.34	-1.81559	1.55634	-2.97841	0.665223	0.552495	0.980276	-0.0384412	-0.0533565	-0.285285	0.182285	0.108575	0	0	-0.0763495	-0.0164762	-0.262575	0.0954514	0.099899	0	0	0.0289369	-0.0254514	0.00251288	-0.173933	-0.129127	6.07508e-06	0.484944	1.41483	0	0	-0.203289	-0.209127	0.415638	0.647681	0.841234	0	0
0.35	-1.70858	1.55639	-3.0855	0.665212	0.552452	0.980163	-0.0360422	-0.0537636	-0.28589	0.183707	0.109326	0	0	-0.0738687	-0.0165029	-0.264247	0.096887	0.101073	0	0	0.0305177	-0.02558	0.00277265	-0.173985	-0.128983	-0.00089457	0.484534	1.41586	0	0	-0.203875	-0.209398	0.415421	0.648287	0.841018	0	0
